<svg width="188" height="220" viewBox="0 0 188 220" fill="none" xmlns="http://www.w3.org/2000/svg">
  <rect width="188" height="220" rx="10" fill="#F2F2F2"/>
  <path d="M94 8C101 28 112 41 127 55C144 71 157 89 157 118C157 157 129 188 94 196C59 188 31 157 31 118C31 93 40 75 54 61C63 52 70 42 75 28C77 45 70 59 58 69C51 75 46 83 46 95C46 109 54 120 67 126C66 117 70 108 77 101C84 94 88 87 89 77C96 87 101 98 101 112C101 98 106 83 117 70C128 57 137 45 142 28C149 42 151 53 149 67C159 77 164 90 164 105C164 122 156 137 142 146C140 133 134 122 124 114C116 108 110 101 108 91C103 102 101 113 101 125C101 140 108 154 121 162C108 174 93 180 94 180C95 180 80 174 67 162C80 154 87 140 87 125C87 113 85 102 80 91C78 101 72 108 64 114C54 122 48 133 46 146C32 137 24 122 24 105C24 90 29 77 39 67C37 53 39 42 46 28C51 45 60 57 71 70C82 83 87 98 87 112C88 98 92 87 99 77C100 87 104 94 111 101C118 108 122 117 121 126C134 120 142 109 142 95C142 83 137 75 130 69C118 59 111 45 113 28C118 42 125 52 134 61C148 75 157 93 157 118C157 157 129 188 94 196C59 188 31 157 31 118C31 89 44 71 61 55C76 41 87 28 94 8Z" fill="url(#outer)"/>
  <path d="M94 30C102 48 112 58 124 69C137 81 145 96 145 116C145 145 123 168 94 176C65 168 43 145 43 116C43 97 51 83 63 72C71 65 76 58 80 49C81 61 76 71 67 79C62 84 59 90 59 98C59 109 66 117 76 121C76 113 79 106 84 101C90 95 93 90 94 82C99 90 103 98 103 108C103 98 107 88 116 78C124 68 131 59 136 49C141 59 142 67 141 76C149 84 153 93 153 104C153 118 146 130 135 137C133 127 129 118 121 112C114 107 109 101 107 94C103 102 101 110 101 119C101 132 107 143 117 149C107 158 95 164 94 164C93 164 81 158 71 149C81 143 87 132 87 119C87 110 85 102 81 94C79 101 74 107 67 112C59 118 55 127 53 137C42 130 35 118 35 104C35 93 39 84 47 76C46 67 47 59 52 49C57 59 64 68 72 78C81 88 85 98 85 108C85 98 89 90 94 82C95 90 98 95 104 101C109 106 112 113 112 121C122 117 129 109 129 98C129 90 126 84 121 79C112 71 107 61 108 49C112 58 117 65 125 72C137 83 145 97 145 116C145 145 123 168 94 176C65 168 43 145 43 116C43 96 51 81 64 69C76 58 86 48 94 30Z" fill="url(#mid)"/>
  <path d="M94 56C99 68 106 76 113 84C121 93 126 103 126 117C126 137 111 153 94 160C77 153 62 137 62 117C62 104 67 93 75 86C80 81 84 76 86 69C87 77 84 83 79 88C76 91 74 95 74 100C74 107 78 112 84 115C84 110 86 106 89 103C93 99 95 95 96 90C99 95 102 101 102 108C102 101 105 94 111 87C116 81 120 75 123 69C126 75 126 80 125 85C130 90 133 96 133 103C133 113 128 122 120 128C118 121 115 115 110 111C105 107 102 103 101 98C98 103 97 108 97 114C97 123 101 131 108 136C101 142 94 146 94 146C94 146 87 142 80 136C87 131 91 123 91 114C91 108 90 103 87 98C86 103 83 107 78 111C73 115 70 121 68 128C60 122 55 113 55 103C55 96 58 90 63 85C62 80 63 75 66 69C69 75 73 81 78 87C84 94 87 101 87 108C87 101 90 95 94 90C95 95 97 99 101 103C104 106 106 110 106 115C112 112 116 107 116 100C116 95 114 91 111 88C106 83 103 77 103 69C106 76 110 81 115 86C123 93 126 104 126 117C126 137 111 153 94 160C77 153 62 137 62 117C62 103 67 93 75 84C82 76 89 68 94 56Z" fill="url(#inner)"/>
  <path d="M94 132C100 136 104 142 104 149C104 158 98 166 94 168C90 166 84 158 84 149C84 142 88 136 94 132Z" fill="#F7F7F7"/>
  <defs>
    <linearGradient id="outer" x1="94" y1="8" x2="94" y2="196" gradientUnits="userSpaceOnUse">
      <stop stop-color="#DC2626"/>
      <stop offset="0.38" stop-color="#F97316"/>
      <stop offset="0.72" stop-color="#F59E0B"/>
      <stop offset="1" stop-color="#FACC15"/>
    </linearGradient>
    <linearGradient id="mid" x1="94" y1="30" x2="94" y2="176" gradientUnits="userSpaceOnUse">
      <stop stop-color="#F97316"/>
      <stop offset="0.5" stop-color="#F59E0B"/>
      <stop offset="1" stop-color="#FDE047"/>
    </linearGradient>
    <linearGradient id="inner" x1="94" y1="56" x2="94" y2="160" gradientUnits="userSpaceOnUse">
      <stop stop-color="#FBBF24"/>
      <stop offset="0.55" stop-color="#FDE047"/>
      <stop offset="1" stop-color="#FEF08A"/>
    </linearGradient>
  </defs>
</svg>
